<svg width="301" height="301" viewBox="0 0 301 301" fill="none" xmlns="http://www.w3.org/2000/svg">
<path d="M300.576 292.502C300.576 296.921 296.994 300.502 292.576 300.502H8.57616C4.15789 300.502 0.576172 296.921 0.576172 292.502V8.50231C0.576172 4.08403 4.15789 0.502319 8.57617 0.502319H292.576C296.994 0.502319 300.576 4.08404 300.576 8.50232V292.502ZM8.78834 284.304C8.78834 288.722 12.3701 292.304 16.7883 292.304H284.386C288.805 292.304 292.386 288.722 292.386 284.304V16.723C292.386 12.3047 288.805 8.72302 284.386 8.72302H16.7883C12.3701 8.72302 8.78834 12.3047 8.78834 16.723V284.304Z" fill="#CA993B"/>
<path d="M260.246 151.772C260.179 183.764 225.995 228.075 190.498 222.974C180.728 221.57 174.964 211.701 172.271 204.683C165.861 187.997 156.381 185.836 139.978 181.046C133.658 179.197 125.49 174.585 123.421 169.194C119.66 159.436 125.935 151.082 134.793 145.98C155.446 134.105 175.765 121.474 197.174 111.07C229.444 95.3412 260.312 115.837 260.246 151.772Z" fill="#CA993B"/>
<path d="M152.7 270.657C152.178 274.688 148.761 277.737 144.696 277.742C112.408 277.78 81.4354 278.03 50.5019 277.158C47.3194 277.069 42.223 269.182 41.6666 264.482C38.0167 234.361 64.4114 201.122 95.5241 197.78C108.276 196.399 121.852 197.624 134.404 200.543C152.364 204.709 157.549 212.105 156.948 230.975C156.55 244.02 154.464 257.017 152.7 270.657Z" fill="#CA993B"/>
<path d="M23.1006 93.7332C23.0949 89.3087 26.6913 85.6891 31.1122 85.8695C49.5683 86.6227 64.1578 90.654 73.1716 108.485C76.4876 115.08 84.0766 119.914 90.5083 124.437C109.781 137.96 112.14 158.5 95.5825 175.476C92.0217 179.13 87.8377 182.249 83.5647 185.078C70.7457 193.544 58.0603 202.277 44.7072 209.83C41.7972 211.477 37.5188 212.351 33.2361 213.043C28.2209 213.853 23.4049 209.91 23.3327 204.83C23.3034 202.773 23.2981 201.459 23.2754 198.802C22.9861 165.986 23.1196 133.17 23.1196 100.376C23.109 98.1912 23.1035 96.0114 23.1006 93.7332Z" fill="#CA993B"/>
<path d="M136.328 127.122C135.9 127.171 135.464 127.192 135.034 127.174C109.557 126.098 91.2245 116.306 81.4044 92.8237C75.0839 77.6967 77.6655 67.3819 92.354 60.1414C104.861 53.9703 117.903 48.4676 131.256 44.5688C153.956 37.9299 180.685 54.5941 185.514 77.162C189.854 97.4353 172.517 120.048 148.237 125.484C144.021 126.445 139.629 126.74 136.328 127.122Z" fill="#CA993B"/>
<path d="M272.728 226.164C276.09 227.147 278.369 230.239 278.369 233.741C278.369 245.955 278.369 257.865 278.369 270.068C278.369 274.486 274.787 278.068 270.369 278.068C239.873 278.068 209.837 278.068 179.863 278.068C175.999 278.068 172.6 275.306 172.331 271.451C171.271 256.239 177.979 248.312 193.399 242.957C206.819 238.301 219.883 232.152 232.301 225.268C241.604 220.1 250.194 218.073 260.209 222.083C264.182 223.676 268.299 224.868 272.728 226.164Z" fill="#CA993B"/>
<path d="M271.488 22.7359C275.49 23.1219 278.481 26.5468 278.481 30.567C278.481 57.3123 278.481 83.6915 278.481 110.186C278.481 116.277 272.035 119.911 267.495 115.85C247.298 97.7856 234.151 65.0505 239.089 41.3831C242.542 24.8133 248.774 20.5447 271.488 22.7359Z" fill="#CA993B"/>
<path d="M229.624 74.9788C229.223 80.1697 226.107 85.1377 223.437 90.1504C222.346 92.2 219.943 93.0911 217.761 92.3113C212.086 90.284 205.788 88.68 203.051 84.6699C194.193 71.6148 182.354 58.4928 180.707 42.7421C179.794 33.8753 182.954 30.6672 186.026 29.6201C196.886 25.9442 208.459 23.9392 219.92 22.7138C222.235 22.4688 226.575 28.0384 227.576 31.6029C228.778 35.8803 228.088 40.6702 227.954 45.3264C227.91 46.4403 227.954 47.5765 228.021 48.6904L229.624 74.9788Z" fill="#CA993B"/>
<path d="M23.2734 30.6919C23.2734 26.2736 26.8554 22.6916 31.2737 22.6916C43.5905 22.6916 55.3309 22.6916 66.9059 22.6916C70.5644 22.6916 73.8264 25.1704 74.3375 28.7929C78.0589 55.1681 60.0948 72.5898 30.232 71.1883C26.2348 71.0008 23.2734 67.5616 23.2734 63.5599C23.2734 52.9064 23.2734 42.0818 23.2734 30.6919Z" fill="#CA993B"/>
<path d="M146.546 31.2465C133.927 37.2394 119.306 37.4621 105.641 40.492C98.4081 42.096 92.2657 41.1603 90.9081 32.3827C89.3725 22.4911 96.0713 22.0678 103.171 22.0901C123.467 22.1792 143.764 22.1124 164.039 22.1124" fill="#CA993B"/>
<path d="M278.236 158.389C278.236 171.425 278.236 184.462 278.236 197.886C278.236 202.117 274.877 205.914 270.731 205.068C265.941 204.09 262.844 201.279 264.014 194.903" fill="#CA993B"/>
<path d="M31.424 241.516C32.5558 248.043 25.2393 247.322 25.2393 240.698C25.2393 237.023 28.9498 234.696 30.4284 238.061C30.8611 239.046 31.1949 240.195 31.424 241.516Z" fill="#CA993B"/>
</svg>
