<svg width="80" height="80" viewBox="0 0 80 80" fill="none" xmlns="http://www.w3.org/2000/svg">
<g clip-path="url(#clip0_72_3)">
<path d="M42.7867 0.0966495C31.2367 -0.683351 19.8733 3.54998 11.6967 11.7366C3.52332 19.92 -0.703348 31.26 0.0966524 42.8467C1.56665 64.0267 20.2733 80 43.61 80H63.3333C72.5233 80 80 72.5233 80 63.3333V41.1333C80 19.54 63.6567 1.51332 42.7867 0.0966495ZM73.3333 63.3333C73.3333 68.8467 68.8467 73.3333 63.3333 73.3333H43.61C23.4967 73.3333 7.98999 60.3167 6.74999 42.3833C6.07999 32.72 9.59999 23.2667 16.41 16.4433C22.6833 10.1633 31.1933 6.66665 40.0467 6.66665C40.81 6.66665 41.57 6.68998 42.3367 6.74332C59.7167 7.92332 73.3333 23.03 73.3333 41.13V63.3333ZM53.3333 46.6667C53.3333 52.18 48.8467 56.6667 43.3333 56.6667V60C43.3333 61.84 41.8433 63.3333 40 63.3333C38.1567 63.3333 36.6667 61.84 36.6667 60V56.6667H35.7733C32.2167 56.6667 28.8967 54.7533 27.1133 51.67C26.19 50.0767 26.7367 48.04 28.3267 47.1167C29.9233 46.19 31.96 46.7367 32.88 48.3333C33.4767 49.36 34.5833 50 35.77 50H43.33C45.17 50 46.6633 48.5033 46.6633 46.6667C46.6633 45.4067 45.76 44.34 44.5167 44.1333L34.38 42.4433C29.9067 41.7 26.6633 37.8667 26.6633 33.3333C26.6633 27.82 31.15 23.3333 36.6633 23.3333V20C36.6633 18.16 38.1533 16.6667 39.9967 16.6667C41.84 16.6667 43.33 18.16 43.33 20V23.3333H44.2233C47.78 23.3333 51.1 25.25 52.8833 28.3333C53.8067 29.9267 53.26 31.9633 51.67 32.8867C50.07 33.81 48.0333 33.2633 47.1167 31.67C46.52 30.64 45.4133 30.0033 44.2267 30.0033H36.6667C34.8267 30.0033 33.3333 31.5 33.3333 33.3367C33.3333 34.5967 34.2367 35.6633 35.48 35.87L45.6167 37.56C50.09 38.3033 53.3333 42.1367 53.3333 46.67V46.6667Z" fill="url(#paint0_linear_72_3)"/>
</g>
<defs>
<linearGradient id="paint0_linear_72_3" x1="40.0003" y1="0.00512695" x2="40.0003" y2="80" gradientUnits="userSpaceOnUse">
<stop stop-color="#905721"/>
<stop offset="0.485" stop-color="#AE7629"/>
<stop offset="1" stop-color="#BD882D"/>
</linearGradient>
<clipPath id="clip0_72_3">
<rect width="80" height="80" fill="white"/>
</clipPath>
</defs>
</svg>
