<svg width="65" height="83" viewBox="0 0 65 83" fill="none" xmlns="http://www.w3.org/2000/svg">
<path d="M27.3683 41.0525C28.2757 41.0525 29.1458 41.4129 29.7874 42.0545C30.4289 42.6961 30.7894 43.5662 30.7894 44.4735C30.7894 45.3809 30.4289 46.251 29.7874 46.8926C29.1458 47.5341 28.2757 47.8946 27.3683 47.8946H17.1052C16.1979 47.8946 15.3277 47.5341 14.6862 46.8926C14.0446 46.251 13.6842 45.3809 13.6842 44.4735C13.6842 43.5662 14.0446 42.6961 14.6862 42.0545C15.3277 41.4129 16.1979 41.0525 17.1052 41.0525H27.3683ZM47.8946 30.7894C47.8946 29.8821 47.5342 29.0119 46.8926 28.3703C46.251 27.7288 45.3809 27.3683 44.4735 27.3683H17.1052C16.1979 27.3683 15.3277 27.7288 14.6862 28.3703C14.0446 29.0119 13.6842 29.8821 13.6842 30.7894C13.6842 31.6967 14.0446 32.5668 14.6862 33.2084C15.3277 33.85 16.1979 34.2104 17.1052 34.2104H44.4735C45.3809 34.2104 46.251 33.85 46.8926 33.2084C47.5342 32.5668 47.8946 31.6967 47.8946 30.7894ZM17.1052 20.5262H44.4735C45.3809 20.5262 46.251 20.1658 46.8926 19.5242C47.5342 18.8827 47.8946 18.0125 47.8946 17.1052C47.8946 16.1979 47.5342 15.3277 46.8926 14.6862C46.251 14.0446 45.3809 13.6842 44.4735 13.6842H17.1052C16.1979 13.6842 15.3277 14.0446 14.6862 14.6862C14.0446 15.3277 13.6842 16.1979 13.6842 17.1052C13.6842 18.0125 14.0446 18.8827 14.6862 19.5242C15.3277 20.1658 16.1979 20.5262 17.1052 20.5262ZM58.1577 66.5187V79.6316C58.1579 80.1196 58.0134 80.5967 57.7424 81.0026C57.4714 81.4084 57.0861 81.7247 56.6352 81.9115C56.1844 82.0983 55.6882 82.1472 55.2096 82.0519C54.731 81.9566 54.2914 81.7215 53.9464 81.3763L51.3156 78.7489L48.6848 81.3763C48.3399 81.7215 47.9003 81.9566 47.4216 82.0519C46.943 82.1472 46.4469 82.0983 45.996 81.9115C45.5452 81.7247 45.1599 81.4084 44.8889 81.0026C44.6178 80.5967 44.4733 80.1196 44.4735 79.6316V66.5187C41.8645 65.0197 39.8243 62.6999 38.6708 59.9208C37.5174 57.1416 37.3153 54.059 38.096 51.153C38.8768 48.247 40.5966 45.6808 42.9876 43.8539C45.3786 42.027 48.3066 41.0421 51.3156 41.0525C52.4721 41.0669 53.6219 41.2302 54.7367 41.5383V17.1052C54.7367 14.3833 53.6554 11.7728 51.7307 9.84808C49.806 7.92337 47.1955 6.84208 44.4735 6.84208H17.1052C14.3833 6.84208 11.7728 7.92337 9.84808 9.84808C7.92337 11.7728 6.84208 14.3833 6.84208 17.1052V58.1577C6.84208 60.8797 7.92337 63.4901 9.84808 65.4148C11.7728 67.3395 14.3833 68.4208 17.1052 68.4208H34.2104C35.1177 68.4208 35.9879 68.7812 36.6295 69.4228C37.271 70.0644 37.6315 70.9345 37.6315 71.8419C37.6315 72.7492 37.271 73.6193 36.6295 74.2609C35.9879 74.9025 35.1177 75.2629 34.2104 75.2629H17.1052C12.5703 75.2575 8.22267 73.4536 5.016 70.2469C1.80933 67.0402 0.00543213 62.6926 0 58.1577V17.1052C0.00543213 12.5703 1.80933 8.22267 5.016 5.016C8.22267 1.80933 12.5703 0.00543213 17.1052 0L44.4735 0C49.0085 0.00543213 53.3561 1.80933 56.5628 5.016C59.7694 8.22267 61.5733 12.5703 61.5788 17.1052V45.7804C62.9188 47.2853 63.9054 49.0708 64.4662 51.0063C65.027 52.9418 65.1478 54.9782 64.8198 56.9664C64.4918 58.9546 63.7234 60.8443 62.5706 62.4971C61.4179 64.1499 59.9101 65.524 58.1577 66.5187ZM58.1577 54.7367C58.1577 53.3834 57.7564 52.0606 57.0046 50.9354C56.2528 49.8102 55.1842 48.9333 53.934 48.4154C52.6838 47.8975 51.308 47.762 49.9808 48.026C48.6536 48.29 47.4344 48.9417 46.4775 49.8986C45.5207 50.8555 44.869 52.0746 44.605 53.4018C44.341 54.7291 44.4765 56.1048 44.9944 57.355C45.5122 58.6052 46.3892 59.6738 47.5144 60.4256C48.6395 61.1775 49.9624 61.5787 51.3156 61.5787C53.1303 61.5787 54.8706 60.8579 56.1537 59.5747C57.4368 58.2916 58.1577 56.5513 58.1577 54.7367Z" fill="url(#paint0_linear_76_35)"/>
<defs>
<linearGradient id="paint0_linear_76_35" x1="32.5" y1="0" x2="32.5" y2="82.0994" gradientUnits="userSpaceOnUse">
<stop stop-color="#905721"/>
<stop offset="0.485" stop-color="#AE7629"/>
<stop offset="1" stop-color="#BD882D"/>
</linearGradient>
</defs>
</svg>
