<svg width="300" height="300" viewBox="0 0 300 300" fill="none" xmlns="http://www.w3.org/2000/svg">
<path d="M300 300H0V0H300V300ZM8.21217 291.802H291.81V8.2207H8.21217V291.802Z" fill="#CA993B"/>
<path d="M259.665 151.27C259.599 183.262 225.415 227.573 189.918 222.471C180.148 221.068 174.384 211.199 171.691 204.181C165.281 187.494 155.8 185.333 139.398 180.544C133.078 178.694 124.91 174.083 122.841 168.691C119.079 158.934 125.355 150.579 134.213 145.477C154.866 133.603 175.185 120.971 196.594 110.567C228.864 94.8388 259.732 115.335 259.665 151.27Z" fill="#CA993B"/>
<path d="M154.34 278.234C119.466 278.234 86.2164 278.59 53.0116 277.655C49.8292 277.565 44.7327 269.679 44.1763 264.978C40.5265 234.858 66.9211 201.619 98.0339 198.277C110.786 196.896 124.362 198.121 136.914 201.039C154.874 205.205 160.059 212.602 159.458 231.472C158.991 246.755 156.209 261.971 154.34 278.234Z" fill="#CA993B"/>
<path d="M22.5183 85.2142C44.7735 85.2588 62.3106 87.6426 72.5925 107.983C75.9085 114.577 83.4975 119.411 89.9293 123.934C109.202 137.457 111.561 157.998 95.0034 174.974C91.4426 178.627 87.2586 181.746 82.9856 184.576C70.1666 193.041 57.4812 201.774 44.1281 209.327C38.8536 212.312 29.0836 212.758 22.9411 214.183C22.7186 203.557 22.7408 203.512 22.6963 198.299C22.407 165.483 22.5405 132.667 22.5405 99.8734C22.5183 95.284 22.5183 90.717 22.5183 85.2142Z" fill="#CA993B"/>
<path d="M135.113 126.696C109.297 125.761 90.7357 116.003 80.8321 92.321C74.5117 77.194 77.0933 66.8791 91.7817 59.6387C104.289 53.4676 117.331 47.9648 130.684 44.0661C153.384 37.4272 180.113 54.0914 184.942 76.6593C189.282 96.9326 171.945 119.545 147.664 124.981C143.169 126.006 138.473 126.273 135.113 126.696Z" fill="#CA993B"/>
<path d="M277.797 227.35C277.797 244.326 277.797 260.545 277.797 277.566C242.278 277.566 207.426 277.566 172.619 277.566C169.036 257.938 175.312 248.537 192.827 242.455C206.247 237.799 219.31 231.65 231.729 224.766C241.031 219.597 249.622 217.57 259.637 221.58C265.245 223.83 271.143 225.278 277.797 227.35Z" fill="#CA993B"/>
<path d="M277.903 23.0357C277.903 56.7651 277.903 89.8484 277.903 123.244C251.776 108.807 232.725 68.6171 238.512 40.8806C242.295 22.7238 249.417 19.3375 277.903 23.0357Z" fill="#CA993B"/>
<path d="M229.047 74.4761C228.647 79.667 225.531 84.6351 222.86 89.6477C221.77 91.6973 219.366 92.5884 217.185 91.8087C211.51 89.7814 205.212 88.1773 202.475 84.1672C193.617 71.1121 181.777 57.9902 180.13 42.2394C179.218 33.3726 182.378 30.1646 185.449 29.1175C196.31 25.4415 207.883 23.4365 219.344 22.2112C221.659 21.9661 225.998 27.5357 227 31.1002C228.202 35.3777 227.512 40.1675 227.378 44.8237C227.334 45.9376 227.378 47.0738 227.445 48.1877L229.047 74.4761Z" fill="#CA993B"/>
<path d="M23.7305 22.1887C41.2676 22.1887 57.5139 22.1887 73.5821 22.1887C81.683 54.0245 60.0955 74.9884 23.7305 70.0426C23.7305 54.6705 23.7305 39.1202 23.7305 22.1887Z" fill="#CA993B"/>
<path d="M145.967 30.744C133.348 36.7369 118.727 36.9597 105.062 39.9895C97.829 41.5936 91.6866 40.6579 90.329 31.8802C88.7934 21.9887 95.4922 21.5654 102.592 21.5876C122.888 21.6768 143.185 21.6099 163.46 21.6099" fill="#CA993B"/>
<path d="M277.662 157.886C277.662 173.348 277.662 188.809 277.662 204.916C269.161 205.428 261.728 203.735 263.441 194.401" fill="#CA993B"/>
<path d="M24.668 278.034C24.668 263.018 24.668 247.98 24.668 233.098C32.7021 234.791 34.0819 248.002 24.668 278.034Z" fill="#CA993B"/>
</svg>
