<svg width="180" height="31" viewBox="0 0 180 31" fill="none" xmlns="http://www.w3.org/2000/svg">
<g clip-path="url(#clip0_94_1446)">
<path d="M29.4237 29.3158C29.4237 29.8681 28.976 30.3158 28.4237 30.3158H1C0.447715 30.3158 0 29.8681 0 29.3158V1C0 0.447715 0.447715 0 1 0H28.4237C28.976 0 29.4237 0.447715 29.4237 1V29.3158ZM0.805442 28.4873C0.805442 29.0396 1.25316 29.4873 1.80544 29.4873H27.6205C28.1728 29.4873 28.6205 29.0396 28.6205 28.4873V1.83072C28.6205 1.27844 28.1728 0.830724 27.6205 0.830724H1.80544C1.25316 0.830724 0.805442 1.27844 0.805442 1.83072V28.4873Z" fill="#CA993B"/>
<path d="M25.4687 15.2862C25.4621 18.519 22.1094 22.9968 18.6279 22.4813C17.6696 22.3395 17.1043 21.3421 16.8402 20.633C16.2116 18.9468 15.2817 18.7284 13.673 18.2444C13.0531 18.0575 12.252 17.5915 12.049 17.0467C11.6801 16.0606 12.2957 15.2164 13.1644 14.7009C15.19 13.5009 17.1829 12.2244 19.2827 11.1731C22.4477 9.58368 25.4752 11.6549 25.4687 15.2862Z" fill="#CA993B"/>
<path d="M15.2449 27.2281C15.1804 27.7333 14.7524 28.1162 14.243 28.117C11.1464 28.1216 8.17116 28.144 5.19956 28.0577C4.88742 28.0487 4.38757 27.2518 4.333 26.7768C3.97502 23.733 6.56379 20.3741 9.6153 20.0364C10.866 19.8968 12.1975 20.0207 13.4286 20.3156C15.1901 20.7366 15.6987 21.484 15.6398 23.3908C15.6023 24.6539 15.4129 25.9124 15.2449 27.2281Z" fill="#CA993B"/>
<path d="M2.20946 9.61321C2.20836 9.06012 2.65838 8.60499 3.21053 8.63736C4.9188 8.73753 6.27141 9.1822 7.12008 10.912C7.44531 11.5783 8.18963 12.0669 8.82045 12.5239C10.7107 13.8904 10.9421 15.9661 9.31813 17.6816C8.96888 18.0508 8.55852 18.366 8.13943 18.6519C6.88215 19.5074 5.63797 20.3899 4.32831 21.153C4.10424 21.2837 3.79746 21.3662 3.47269 21.4295C2.84645 21.5515 2.23477 21.0408 2.22919 20.4028C2.22828 20.2994 2.22757 20.1908 2.2263 20.0387C2.19793 16.7225 2.21103 13.4064 2.21103 10.0925C2.21028 9.93376 2.20979 9.7753 2.20946 9.61321Z" fill="#CA993B"/>
<path d="M13.334 12.7929C13.2789 12.7993 13.223 12.8021 13.1676 12.7996C10.6792 12.6865 8.88818 11.6959 7.92759 9.3293C7.30768 7.80068 7.56088 6.75834 9.00151 6.02667C10.2282 5.40307 11.5073 4.847 12.817 4.45302C15.0434 3.78214 17.6649 5.4661 18.1386 7.74665C18.5642 9.79532 16.8639 12.0804 14.4824 12.6297C14.0773 12.7248 13.6555 12.7554 13.334 12.7929Z" fill="#CA993B"/>
<path d="M26.548 22.7602C26.964 22.8859 27.2452 23.2692 27.2452 23.7038C27.2452 24.8272 27.2452 25.927 27.2452 27.0487C27.2452 27.601 26.7975 28.0488 26.2452 28.0488C23.3904 28.0488 20.576 28.0488 17.7678 28.0488C17.2829 28.0488 16.8527 27.7005 16.8368 27.2158C16.7899 25.7851 17.4539 25.0222 18.9114 24.5007C20.2276 24.0302 21.5089 23.4089 22.7269 22.7132C23.6393 22.1909 24.4819 21.986 25.4641 22.3913C25.8103 22.5344 26.1678 22.6454 26.548 22.7602Z" fill="#CA993B"/>
<path d="M26.3852 2.22953C26.8844 2.27251 27.2561 2.70194 27.2561 3.20298C27.2561 5.73161 27.2561 8.22868 27.2561 10.7341C27.2561 11.5012 26.4451 11.9423 25.9087 11.3939C24.0824 9.52704 22.9307 6.41226 23.3926 4.13108C23.7217 2.504 24.3082 2.0507 26.3852 2.22953Z" fill="#CA993B"/>
<path d="M22.4653 7.52602C22.426 8.05056 22.1204 8.5526 21.8584 9.05914C21.7515 9.26626 21.5157 9.35631 21.3018 9.27751C20.7452 9.07265 20.1275 8.91055 19.859 8.50532C18.9903 7.18607 17.829 5.86007 17.6675 4.26841C17.578 3.3724 17.888 3.04821 18.1892 2.9424C19.2544 2.57094 20.3894 2.36832 21.5136 2.2445C21.7406 2.21974 22.1662 2.78256 22.2644 3.14277C22.3823 3.57501 22.3146 4.05904 22.3015 4.52956C22.2972 4.64212 22.3015 4.75694 22.3081 4.8695L22.4653 7.52602Z" fill="#CA993B"/>
<path d="M2.32666 3.24232C2.32666 2.69004 2.77444 2.24225 3.32672 2.24225C4.39554 2.24225 5.4215 2.24225 6.43301 2.24225C6.89295 2.24225 7.30479 2.55633 7.35391 3.01363C7.62485 5.53621 5.95575 7.2083 3.19396 7.14943C2.69541 7.1388 2.32666 6.70704 2.32666 6.20837C2.32666 5.24459 2.32666 4.26538 2.32666 3.24232Z" fill="#CA993B"/>
<path d="M14.3166 3.10675C13.0789 3.71234 11.6448 3.73486 10.3046 4.04103C9.59522 4.20312 8.99277 4.10857 8.85962 3.22156C8.70901 2.22199 9.36603 2.17922 10.0623 2.18147C12.053 2.19048 14.0437 2.18372 16.0322 2.18372" fill="#CA993B"/>
<path d="M27.2321 15.9548C27.2321 17.2143 27.2321 18.4738 27.2321 19.7674C27.2321 20.2957 26.7976 20.8022 26.303 20.6167C25.947 20.4831 25.7391 20.1956 25.8373 19.6447" fill="#CA993B"/>
<path d="M3.02195 24.3371C3.13642 24.9826 2.41846 24.9147 2.41846 24.2591C2.41846 23.8954 2.78368 23.6702 2.9268 24.0046C2.96761 24.0999 2.9995 24.2105 3.02195 24.3371Z" fill="#CA993B"/>
<path d="M46.5146 6.85742H41.5139H39.0801H34.9787C34.6076 6.85742 34.3173 6.97674 34.1056 7.21313C33.8938 7.44951 33.7891 7.81422 33.7891 8.305C33.7891 8.59541 33.824 8.86107 33.8938 9.0952C33.9637 9.33158 34.0444 9.52294 34.1318 9.66928H38.6304V21.977C38.6304 22.5601 38.768 22.9721 39.0408 23.2198C39.3137 23.4651 39.7764 23.589 40.429 23.589C40.7281 23.589 41.0249 23.5665 41.3153 23.5214C41.6056 23.4764 41.8217 23.4269 41.9635 23.3706V9.66928H45.6677C46.0388 9.66928 46.3291 9.5432 46.5408 9.28656C46.7525 9.03216 46.8573 8.66745 46.8573 8.19469C46.8573 7.92228 46.8224 7.66338 46.7525 7.41799C46.6827 7.17035 46.6019 6.98349 46.5146 6.85742Z" fill="#4B2A1C"/>
<path d="M60.0502 7.41572C58.8409 6.75159 57.4789 6.42065 55.9618 6.42065C54.4797 6.42065 53.1351 6.75384 51.9259 7.41572C50.7166 8.07985 49.7562 9.05691 49.0424 10.3491C48.3287 11.6414 47.9707 13.233 47.9707 15.1241C47.9707 17.0174 48.3199 18.6091 49.0163 19.8991C49.7126 21.1913 50.6664 22.1684 51.8735 22.8325C53.0806 23.4966 54.4448 23.8276 55.9618 23.8276C57.4963 23.8276 58.8671 23.4944 60.0763 22.8325C61.2834 22.1684 62.2373 21.1913 62.9336 19.8991C63.6299 18.6069 63.9791 17.0152 63.9791 15.1241C63.9791 13.233 63.6255 11.6414 62.9205 10.3491C62.2155 9.05916 61.2572 8.07985 60.0502 7.41572ZM59.3211 19.5209C58.4917 20.5227 57.3806 21.0225 55.988 21.0225C54.5932 21.0225 53.4822 20.5227 52.6549 19.5209C51.8255 18.5213 51.4108 17.0557 51.4108 15.1264C51.4108 13.215 51.8298 11.7607 52.668 10.7589C53.5062 9.75931 54.6041 9.25727 55.9618 9.25727C57.3544 9.25727 58.472 9.75706 59.308 10.7589C60.1462 11.7607 60.5653 13.215 60.5653 15.1264C60.5653 17.0557 60.1506 18.5191 59.3211 19.5209Z" fill="#4B2A1C"/>
<path d="M73.557 13.5707L72.0225 13.1069C71.3175 12.8885 70.7914 12.6341 70.4487 12.3415C70.1039 12.0511 69.9336 11.6683 69.9336 11.1956C69.9336 10.6147 70.1803 10.1487 70.6736 9.80428C71.1669 9.45983 71.8719 9.28648 72.7909 9.28648C73.6203 9.28648 74.3865 9.4013 75.0937 9.62868C75.7987 9.85606 76.3553 10.124 76.7613 10.4346C77.008 10.2703 77.2153 10.0564 77.3834 9.79302C77.5515 9.52962 77.6344 9.22345 77.6344 8.879C77.6344 8.38822 77.4096 7.96048 76.9599 7.59577C76.5103 7.23106 75.9013 6.94515 75.1352 6.73578C74.3668 6.52641 73.4893 6.42285 72.5027 6.42285C70.6496 6.42285 69.1915 6.8506 68.1241 7.70608C67.0567 8.56157 66.5241 9.72548 66.5241 11.2001C66.5241 12.0916 66.7053 12.8413 67.0655 13.4514C67.4278 14.0615 67.9386 14.5567 68.5999 14.9395C69.2613 15.3222 70.034 15.6666 70.9159 15.9773L72.6359 16.5221C73.4108 16.7585 73.9892 17.0534 74.369 17.4091C74.7488 17.7648 74.9387 18.2241 74.9387 18.7869C74.9387 19.424 74.692 19.9553 74.1987 20.3831C73.7054 20.8108 72.9458 21.0247 71.9221 21.0247C70.9508 21.0247 70.106 20.8513 69.3814 20.5069C68.6567 20.1624 68.0673 19.7887 67.609 19.388C67.3274 19.5343 67.0611 19.7527 66.8144 20.0431C66.5678 20.3335 66.4434 20.6802 66.4434 21.081C66.4434 21.61 66.6856 22.0828 67.1702 22.4993C67.6548 22.918 68.3118 23.2467 69.1413 23.4808C69.9707 23.7172 70.9224 23.8365 71.9985 23.8365C74.0438 23.8365 75.6197 23.3728 76.722 22.4452C77.8243 21.5177 78.3766 20.3088 78.3766 18.8162C78.3766 17.4159 77.9531 16.3105 77.1062 15.5C76.2571 14.6851 75.074 14.0434 73.557 13.5707Z" fill="#4B2A1C"/>
<path d="M94.4353 6.99248C94.1537 6.75609 93.6953 6.63677 93.0602 6.63677C92.7589 6.63677 92.4643 6.66379 92.1739 6.71782C91.8836 6.77185 91.6675 6.81688 91.5257 6.85515V12.5036V13.7036H84.7787V12.5036V8.24644C84.7787 7.62734 84.6368 7.2041 84.3553 6.97672C84.0737 6.74934 83.6153 6.63452 82.9801 6.63452C82.6789 6.63452 82.3842 6.66154 82.0939 6.71557C81.8036 6.7696 81.5788 6.81462 81.4194 6.8529V12.5014V16.4591V21.9725C81.4194 22.5556 81.5613 22.9676 81.8429 23.2152C82.1245 23.4606 82.5829 23.5844 83.218 23.5844C83.5345 23.5844 83.8401 23.5619 84.1304 23.5169C84.4207 23.4719 84.6368 23.4223 84.7787 23.3661V16.4636H91.5257V21.977C91.5257 22.5601 91.6632 22.9721 91.936 23.2197C92.2089 23.4651 92.6716 23.5889 93.3243 23.5889C93.6233 23.5889 93.9202 23.5664 94.2105 23.5214C94.5008 23.4764 94.7169 23.4268 94.8588 23.3706V16.4636V12.5059V8.27571C94.8588 7.65886 94.7169 7.23111 94.4353 6.99248Z" fill="#4B2A1C"/>
<path d="M109.053 14.7977C108.948 14.7526 108.839 14.7121 108.728 14.6738C109.503 14.3362 110.099 13.8836 110.509 13.3118C110.959 12.6837 111.183 11.952 111.183 11.1146C111.183 9.54992 110.601 8.38601 109.437 7.62057C108.274 6.85739 106.632 6.47467 104.515 6.47467C103.668 6.47467 102.847 6.51519 102.055 6.59849C101.261 6.67954 100.564 6.82137 99.964 7.02173C99.6628 7.11404 99.4205 7.25361 99.2372 7.44497C99.0516 7.63633 98.96 7.89523 98.96 8.22167V21.6213C98.96 22.3845 99.3921 22.9226 100.257 23.231C100.697 23.3593 101.178 23.4674 101.699 23.5597C102.219 23.6497 102.741 23.7105 103.26 23.7375C103.78 23.7645 104.262 23.778 104.703 23.778C106.96 23.778 108.706 23.3638 109.941 22.5353C111.177 21.7069 111.795 20.4304 111.795 18.7014C111.795 17.8099 111.565 17.0332 111.107 16.3668C110.647 15.7049 109.963 15.1804 109.053 14.7977ZM103.273 9.20323C103.679 9.16721 104.103 9.1492 104.543 9.1492C105.637 9.1492 106.458 9.33605 107.003 9.70977C107.549 10.0835 107.824 10.6238 107.824 11.3329C107.824 12.0601 107.586 12.6252 107.11 13.0259C106.635 13.4266 105.91 13.627 104.941 13.627H102.241V9.34281C102.522 9.28652 102.867 9.2415 103.273 9.20323ZM107.44 20.4619C106.814 20.8716 105.954 21.0765 104.86 21.0765C104.402 21.0765 103.934 21.0585 103.456 21.0225C102.981 20.9864 102.575 20.9234 102.238 20.8311V16.1642H105.15C106.209 16.1642 107.012 16.3691 107.558 16.7788C108.104 17.1885 108.379 17.7851 108.379 18.5663C108.379 19.4196 108.066 20.0522 107.44 20.4619Z" fill="#4B2A1C"/>
<path d="M126.306 7.41572C125.097 6.75159 123.735 6.42065 122.218 6.42065C120.736 6.42065 119.391 6.75384 118.182 7.41572C116.972 8.07985 116.012 9.05691 115.298 10.3491C114.585 11.6414 114.227 13.233 114.227 15.1241C114.227 17.0174 114.576 18.6091 115.272 19.8991C115.968 21.1913 116.922 22.1684 118.129 22.8325C119.336 23.4966 120.701 23.8276 122.218 23.8276C123.752 23.8276 125.123 23.4944 126.332 22.8325C127.539 22.1684 128.493 21.1913 129.189 19.8991C129.886 18.6069 130.235 17.0152 130.235 15.1241C130.235 13.233 129.881 11.6414 129.176 10.3491C128.471 9.05916 127.515 8.07985 126.306 7.41572ZM125.579 19.5209C124.75 20.5227 123.639 21.0225 122.246 21.0225C120.851 21.0225 119.74 20.5227 118.913 19.5209C118.084 18.5213 117.669 17.0557 117.669 15.1264C117.669 13.215 118.088 11.7607 118.926 10.7589C119.764 9.75931 120.862 9.25727 122.22 9.25727C123.612 9.25727 124.73 9.75706 125.566 10.7589C126.404 11.7607 126.823 13.215 126.823 15.1264C126.823 17.0557 126.409 18.5191 125.579 19.5209Z" fill="#4B2A1C"/>
<path d="M144.445 20.5565H136.325L143.809 10.5675C144.056 10.2591 144.255 9.9439 144.405 9.62647C144.556 9.30904 144.63 8.96684 144.63 8.60214C144.63 7.87497 144.357 7.28288 143.809 6.82812H143.148H142.725H133.649C133.26 6.82812 132.957 6.95195 132.736 7.19734C132.516 7.44273 132.407 7.81194 132.407 8.30272C132.407 8.59313 132.45 8.85878 132.54 9.09292C132.627 9.3293 132.717 9.52066 132.804 9.66699H140.583L133.042 19.6559C132.813 19.9644 132.614 20.2886 132.446 20.624C132.278 20.9617 132.195 21.3106 132.195 21.6753C132.195 22.0401 132.269 22.3755 132.42 22.6862C132.57 22.9968 132.751 23.2422 132.963 23.4223H133.491H134.179H143.6C143.971 23.4223 144.266 23.2985 144.486 23.0531C144.706 22.8077 144.818 22.4385 144.818 21.9477C144.818 21.6573 144.779 21.3939 144.698 21.1553C144.617 20.9212 144.534 20.7208 144.445 20.5565Z" fill="#4B2A1C"/>
<path d="M158.774 7.41572C157.565 6.75159 156.203 6.42065 154.686 6.42065C153.204 6.42065 151.859 6.75384 150.65 7.41572C149.441 8.07985 148.48 9.05691 147.767 10.3491C147.053 11.6414 146.695 13.233 146.695 15.1241C146.695 17.0174 147.044 18.6091 147.74 19.8991C148.437 21.1913 149.391 22.1684 150.598 22.8325C151.805 23.4966 153.169 23.8276 154.686 23.8276C156.22 23.8276 157.591 23.4944 158.8 22.8325C160.008 22.1684 160.961 21.1913 161.658 19.8991C162.354 18.6069 162.703 17.0152 162.703 15.1241C162.703 13.233 162.35 11.6414 161.645 10.3491C160.94 9.05916 159.981 8.07985 158.774 7.41572ZM158.047 19.5209C157.218 20.5227 156.107 21.0225 154.714 21.0225C153.32 21.0225 152.209 20.5227 151.381 19.5209C150.552 18.5213 150.137 17.0557 150.137 15.1264C150.137 13.215 150.556 11.7607 151.394 10.7589C152.233 9.75931 153.33 9.25727 154.688 9.25727C156.081 9.25727 157.198 9.75706 158.037 10.7589C158.875 11.7607 159.294 13.215 159.294 15.1264C159.289 17.0557 158.875 18.5191 158.047 19.5209Z" fill="#4B2A1C"/>
<path d="M176.848 19.4511C176.416 18.877 175.966 18.2872 175.499 17.6771C175.32 17.4452 175.148 17.2133 174.973 16.9837C175.047 16.9521 175.123 16.9206 175.196 16.8869C176.165 16.4231 176.92 15.7725 177.457 14.935C177.994 14.0975 178.264 13.134 178.264 12.0421C178.264 10.3131 177.686 8.95333 176.531 7.96277C175.377 6.9722 173.633 6.47467 171.306 6.47467C170.511 6.47467 169.732 6.5197 168.964 6.612C168.198 6.7043 167.53 6.83938 166.966 7.02173C166.665 7.12979 166.423 7.27613 166.24 7.45848C166.054 7.64084 165.962 7.89523 165.962 8.22167V16.3826V17.5825V21.977C165.962 22.5601 166.104 22.9721 166.386 23.2197C166.667 23.4651 167.126 23.5889 167.761 23.5889C168.08 23.5889 168.383 23.5664 168.673 23.5214C168.964 23.4764 169.18 23.4268 169.322 23.3706V17.5848H171.729C171.771 17.5848 171.81 17.5825 171.852 17.5825L174.931 22.2787C175.196 22.6974 175.475 23.0284 175.765 23.2738C176.056 23.5191 176.466 23.643 176.996 23.643C177.402 23.643 177.778 23.5146 178.12 23.2602C178.465 23.0058 178.699 22.6501 178.821 22.1954C178.627 21.887 178.358 21.4952 178.013 21.0225C177.666 20.5474 177.28 20.0251 176.848 19.4511ZM169.293 9.44862C169.575 9.39459 169.885 9.35406 170.219 9.32705C170.553 9.30003 170.898 9.28652 171.251 9.28652C172.452 9.28652 173.36 9.52291 173.978 9.99568C174.595 10.4684 174.903 11.1596 174.903 12.0691C174.903 12.9966 174.593 13.6968 173.978 14.1696C173.36 14.6423 172.53 14.8787 171.491 14.8787H169.295L169.293 9.44862Z" fill="#4B2A1C"/>
</g>
<defs>
<clipPath id="clip0_94_1446">
<rect width="180" height="30.3158" fill="white"/>
</clipPath>
</defs>
</svg>
