<svg width="100" height="17" viewBox="0 0 100 17" fill="none" xmlns="http://www.w3.org/2000/svg">
<g clip-path="url(#clip0_85_920)">
<path d="M16.3465 16.6667H0V0H16.3465V16.6667ZM0.447468 16.2112H15.9003V0.456706H0.447468V16.2112Z" fill="white"/>
<path d="M14.1493 8.40385C14.1456 10.1812 12.283 12.6429 10.3488 12.3595C9.81647 12.2815 9.50239 11.7332 9.35566 11.3434C9.00642 10.4163 8.48983 10.2963 7.59611 10.0302C7.25171 9.92744 6.80667 9.67124 6.69389 9.37172C6.48896 8.82962 6.83092 8.36548 7.31356 8.08206C8.4389 7.42237 9.54605 6.7206 10.7126 6.1426C12.471 5.2688 14.1529 6.40747 14.1493 8.40385Z" fill="white"/>
<path d="M8.40973 15.4575C6.50951 15.4575 4.69781 15.4773 2.88854 15.4253C2.71513 15.4203 2.43743 14.9822 2.40711 14.721C2.20824 13.0477 3.64644 11.2011 5.34173 11.0154C6.03658 10.9387 6.77629 11.0067 7.46023 11.1689C8.43884 11.4003 8.72138 11.8112 8.68864 12.8596C8.66318 13.7086 8.5116 14.5539 8.40973 15.4575Z" fill="white"/>
<path d="M1.22727 4.73413C2.43992 4.73661 3.39549 4.86904 3.95573 5.99905C4.13642 6.3654 4.54993 6.63398 4.90039 6.88523C5.95054 7.6365 6.07908 8.77765 5.17687 9.72076C4.98285 9.92374 4.75487 10.097 4.52204 10.2542C3.82355 10.7245 3.13234 11.2097 2.40475 11.6293C2.11736 11.7951 1.585 11.8199 1.25031 11.8991C1.23818 11.3087 1.2394 11.3062 1.23697 11.0166C1.22121 9.19351 1.22848 7.3704 1.22848 5.54853C1.22727 5.29356 1.22727 5.03984 1.22727 4.73413Z" fill="white"/>
<path d="M7.36192 7.03864C5.95525 6.98665 4.9439 6.44455 4.40427 5.12889C4.05988 4.2885 4.20054 3.71545 5.00089 3.31321C5.6824 2.97037 6.39302 2.66466 7.12061 2.44806C8.35751 2.07923 9.8139 3.00502 10.077 4.2588C10.3135 5.38509 9.36886 6.64134 8.04586 6.94334C7.8009 7.00027 7.54503 7.01512 7.36192 7.03864Z" fill="white"/>
<path d="M15.1363 12.6307C15.1363 13.5738 15.1363 14.4748 15.1363 15.4204C13.2009 15.4204 11.3019 15.4204 9.40531 15.4204C9.21008 14.33 9.55204 13.8077 10.5064 13.4698C11.2376 13.2111 11.9495 12.8695 12.6261 12.4871C13.133 12.1999 13.6011 12.0873 14.1468 12.3101C14.4524 12.4351 14.7737 12.5156 15.1363 12.6307Z" fill="white"/>
<path d="M15.1423 1.27968C15.1423 3.15353 15.1423 4.9915 15.1423 6.84679C13.7187 6.04477 12.6806 3.81198 12.9959 2.27106C13.2021 1.26235 13.5901 1.07422 15.1423 1.27968Z" fill="white"/>
<path d="M12.4805 4.13769C12.4587 4.42607 12.2889 4.70207 12.1434 4.98055C12.084 5.09442 11.953 5.14392 11.8342 5.1006C11.5249 4.98797 11.1818 4.89886 11.0326 4.67608C10.55 3.95079 9.90484 3.2218 9.8151 2.34676C9.76538 1.85416 9.93758 1.67593 10.1049 1.61776C10.6967 1.41354 11.3273 1.30215 11.9518 1.23408C12.0779 1.22046 12.3144 1.52988 12.3689 1.72791C12.4344 1.96555 12.3968 2.23165 12.3896 2.49033C12.3871 2.55221 12.3896 2.61533 12.3932 2.67722L12.4805 4.13769Z" fill="white"/>
<path d="M1.29272 1.23267C2.24829 1.23267 3.13353 1.23267 4.00906 1.23267C4.45047 3.00132 3.2742 4.16598 1.29272 3.89121C1.29272 3.03721 1.29272 2.17331 1.29272 1.23267Z" fill="white"/>
<path d="M7.95386 1.70795C7.26628 2.04089 6.46957 2.05326 5.725 2.22159C5.33089 2.3107 4.9962 2.25872 4.92223 1.77107C4.83856 1.22154 5.20357 1.19802 5.5904 1.19926C6.69634 1.20421 7.80227 1.2005 8.907 1.2005" fill="white"/>
<path d="M15.129 8.77148C15.129 9.63044 15.129 10.4894 15.129 11.3842C14.6657 11.4127 14.2607 11.3186 14.3541 10.8001" fill="white"/>
<path d="M1.34351 15.4464C1.34351 14.6122 1.34351 13.7767 1.34351 12.95C1.78127 13.044 1.85646 13.778 1.34351 15.4464Z" fill="white"/>
<path d="M25.8415 3.76978H23.0633H21.7112H19.4326C19.2265 3.76978 19.0652 3.83537 18.9476 3.96533C18.8299 4.09529 18.7717 4.29579 18.7717 4.56561C18.7717 4.72527 18.7911 4.87132 18.8299 5.00003C18.8687 5.12999 18.9136 5.23519 18.9621 5.31564H21.4614V12.0821C21.4614 12.4026 21.5378 12.6291 21.6894 12.7653C21.8409 12.9002 22.098 12.9683 22.4606 12.9683C22.6267 12.9683 22.7917 12.9559 22.9529 12.9311C23.1142 12.9064 23.2343 12.8791 23.3131 12.8482V5.31564H25.371C25.5771 5.31564 25.7384 5.24633 25.856 5.10524C25.9737 4.96538 26.0319 4.76487 26.0319 4.50496C26.0319 4.3552 26.0125 4.21287 25.9737 4.07796C25.9349 3.94181 25.89 3.83909 25.8415 3.76978Z" fill="white"/>
<path d="M33.3612 4.07684C32.6894 3.71172 31.9327 3.52979 31.0899 3.52979C30.2665 3.52979 29.5195 3.71296 28.8477 4.07684C28.1759 4.44196 27.6423 4.97911 27.2458 5.68955C26.8493 6.39998 26.6504 7.27502 26.6504 8.31468C26.6504 9.35557 26.8444 10.2306 27.2313 10.9398C27.6181 11.6502 28.148 12.1874 28.8186 12.5525C29.4892 12.9176 30.2471 13.0996 31.0899 13.0996C31.9424 13.0996 32.7039 12.9164 33.3757 12.5525C34.0463 12.1874 34.5763 11.6502 34.9631 10.9398C35.3499 10.2294 35.544 9.35433 35.544 8.31468C35.544 7.27502 35.3475 6.39998 34.9558 5.68955C34.5641 4.98035 34.0318 4.44196 33.3612 4.07684ZM32.9562 10.7319C32.4954 11.2826 31.8781 11.5574 31.1045 11.5574C30.3296 11.5574 29.7123 11.2826 29.2527 10.7319C28.7919 10.1823 28.5615 9.37661 28.5615 8.31591C28.5615 7.26512 28.7944 6.46557 29.26 5.9148C29.7257 5.36527 30.3356 5.08927 31.0899 5.08927C31.8636 5.08927 32.4845 5.36403 32.9489 5.9148C33.4146 6.46557 33.6474 7.26512 33.6474 8.31591C33.6474 9.37661 33.417 10.1811 32.9562 10.7319Z" fill="white"/>
<path d="M40.8651 7.46066L40.0126 7.20569C39.6209 7.08564 39.3287 6.94578 39.1383 6.78488C38.9467 6.62522 38.8521 6.41481 38.8521 6.1549C38.8521 5.83558 38.9891 5.57937 39.2632 5.39001C39.5373 5.20064 39.9289 5.10534 40.4395 5.10534C40.9003 5.10534 41.3259 5.16846 41.7188 5.29347C42.1105 5.41848 42.4197 5.56576 42.6453 5.73656C42.7823 5.64621 42.8975 5.52863 42.9909 5.38382C43.0843 5.23901 43.1303 5.07069 43.1303 4.88132C43.1303 4.6115 43.0054 4.37634 42.7556 4.17584C42.5058 3.97533 42.1675 3.81815 41.7419 3.70304C41.315 3.58794 40.8275 3.53101 40.2794 3.53101C39.2499 3.53101 38.4398 3.76617 37.8468 4.23649C37.2538 4.70681 36.958 5.34669 36.958 6.15737C36.958 6.6475 37.0586 7.05965 37.2587 7.39506C37.46 7.73047 37.7438 8.00276 38.1112 8.21317C38.4786 8.42358 38.9079 8.61294 39.3978 8.78374L40.3534 9.08326C40.7839 9.21322 41.1052 9.37536 41.3162 9.57091C41.5272 9.76646 41.6327 10.019 41.6327 10.3284C41.6327 10.6786 41.4957 10.9707 41.2216 11.2059C40.9476 11.4411 40.5256 11.5586 39.9568 11.5586C39.4172 11.5586 38.9479 11.4633 38.5453 11.274C38.1427 11.0846 37.8153 10.8791 37.5606 10.6588C37.4042 10.7393 37.2563 10.8593 37.1192 11.019C36.9822 11.1787 36.9131 11.3693 36.9131 11.5896C36.9131 11.8804 37.0477 12.1403 37.3169 12.3693C37.5861 12.5995 37.9511 12.7802 38.4119 12.9089C38.8727 13.0389 39.4014 13.1045 39.9993 13.1045C41.1355 13.1045 42.0111 12.8495 42.6235 12.3396C43.2358 11.8297 43.5426 11.165 43.5426 10.3445C43.5426 9.57462 43.3074 8.96692 42.8369 8.52135C42.3652 8.07331 41.7079 7.72057 40.8651 7.46066Z" fill="white"/>
<path d="M52.4639 3.84425C52.3075 3.7143 52.0529 3.6487 51.7 3.6487C51.5326 3.6487 51.3689 3.66355 51.2076 3.69326C51.0464 3.72296 50.9263 3.74771 50.8475 3.76875V6.87411V7.53379H47.0992V6.87411V4.53364C47.0992 4.19328 47.0204 3.9606 46.8639 3.83559C46.7075 3.71058 46.4528 3.64746 46.1 3.64746C45.9326 3.64746 45.7689 3.66231 45.6076 3.69202C45.4463 3.72172 45.3214 3.74648 45.2329 3.76752V6.87287V9.04872V12.0798C45.2329 12.4004 45.3117 12.6269 45.4682 12.763C45.6246 12.8979 45.8793 12.966 46.2321 12.966C46.408 12.966 46.5777 12.9536 46.739 12.9289C46.9003 12.9041 47.0204 12.8769 47.0992 12.8459V9.05119H50.8475V12.0823C50.8475 12.4028 50.9239 12.6293 51.0755 12.7655C51.227 12.9004 51.4841 12.9685 51.8467 12.9685C52.0128 12.9685 52.1778 12.9561 52.339 12.9313C52.5003 12.9066 52.6204 12.8794 52.6992 12.8484V9.05119V6.87534V4.54973C52.6992 4.21061 52.6204 3.97545 52.4639 3.84425Z" fill="white"/>
<path d="M60.5851 8.13529C60.5269 8.11054 60.4662 8.08826 60.4044 8.06722C60.8349 7.88156 61.1659 7.63279 61.3939 7.31842C61.6437 6.9731 61.7686 6.57086 61.7686 6.11044C61.7686 5.25025 61.4448 4.61036 60.7985 4.18955C60.1522 3.76998 59.2402 3.55957 58.064 3.55957C57.5935 3.55957 57.1375 3.58185 56.6973 3.62764C56.2559 3.6722 55.8691 3.75017 55.5356 3.86033C55.3683 3.91107 55.2337 3.98781 55.1318 4.09301C55.0287 4.19822 54.9778 4.34055 54.9778 4.52001V11.8867C54.9778 12.3063 55.2179 12.6021 55.6981 12.7717C55.9431 12.8422 56.2098 12.9016 56.4997 12.9524C56.7883 13.0019 57.0781 13.0353 57.3667 13.0501C57.6553 13.065 57.9233 13.0724 58.1683 13.0724C59.4221 13.0724 60.3923 12.8447 61.0786 12.3892C61.765 11.9337 62.1082 11.232 62.1082 10.2814C62.1082 9.79131 61.9808 9.36431 61.7262 8.99796C61.4703 8.63408 61.0908 8.3457 60.5851 8.13529ZM57.374 5.05964C57.5995 5.03984 57.8348 5.02994 58.0797 5.02994C58.6873 5.02994 59.1432 5.13267 59.4464 5.33812C59.7496 5.54358 59.9024 5.84062 59.9024 6.23049C59.9024 6.63027 59.7702 6.94092 59.5058 7.16123C59.2415 7.38154 58.8389 7.49169 58.3004 7.49169H56.8004V5.13638C56.9568 5.10544 57.1484 5.08068 57.374 5.05964ZM59.6889 11.2493C59.3409 11.4746 58.8631 11.5872 58.2556 11.5872C58.0009 11.5872 57.7414 11.5773 57.4758 11.5575C57.2115 11.5377 56.9859 11.503 56.7992 11.4523V8.88657H58.4169C59.005 8.88657 59.4512 8.99919 59.7544 9.22445C60.0576 9.44971 60.2104 9.7777 60.2104 10.2072C60.2104 10.6763 60.037 11.024 59.6889 11.2493Z" fill="white"/>
<path d="M70.1698 4.07684C69.498 3.71172 68.7413 3.52979 67.8985 3.52979C67.0751 3.52979 66.3281 3.71296 65.6563 4.07684C64.9845 4.44196 64.4509 4.97911 64.0544 5.68955C63.6579 6.39998 63.459 7.27502 63.459 8.31468C63.459 9.35557 63.653 10.2306 64.0398 10.9398C64.4267 11.6502 64.9566 12.1874 65.6272 12.5525C66.2978 12.9176 67.0557 13.0996 67.8985 13.0996C68.751 13.0996 69.5125 12.9164 70.1843 12.5525C70.8549 12.1874 71.3849 11.6502 71.7717 10.9398C72.1585 10.2294 72.3526 9.35433 72.3526 8.31468C72.3526 7.27502 72.1561 6.39998 71.7644 5.68955C71.3727 4.98035 70.8416 4.44196 70.1698 4.07684ZM69.766 10.7319C69.3052 11.2826 68.6879 11.5574 67.9143 11.5574C67.1394 11.5574 66.5221 11.2826 66.0625 10.7319C65.6017 10.1823 65.3713 9.37661 65.3713 8.31591C65.3713 7.26512 65.6042 6.46557 66.0698 5.9148C66.5355 5.36527 67.1454 5.08927 67.8997 5.08927C68.6734 5.08927 69.2943 5.36403 69.7587 5.9148C70.2244 6.46557 70.4572 7.26512 70.4572 8.31591C70.4572 9.37661 70.2268 10.1811 69.766 10.7319Z" fill="white"/>
<path d="M80.247 11.3013H75.736L79.8942 5.8097C80.0312 5.64014 80.1415 5.46686 80.2252 5.29235C80.3089 5.11783 80.3501 4.92971 80.3501 4.7292C80.3501 4.32943 80.1985 4.00392 79.8942 3.75391H79.5267H79.2915H74.2493C74.0334 3.75391 73.8649 3.82198 73.7424 3.95689C73.6199 4.09179 73.5593 4.29477 73.5593 4.56459C73.5593 4.72425 73.5835 4.8703 73.6333 4.99902C73.6818 5.12897 73.7315 5.23418 73.78 5.31463H78.1019L73.9122 10.8062C73.7848 10.9758 73.6745 11.154 73.5811 11.3384C73.4877 11.5241 73.4417 11.7159 73.4417 11.9164C73.4417 12.1169 73.4829 12.3014 73.5666 12.4722C73.6502 12.643 73.7509 12.7779 73.8685 12.8769H74.162H74.544H79.7777C79.9839 12.8769 80.1476 12.8088 80.2701 12.6739C80.3926 12.539 80.4544 12.336 80.4544 12.0662C80.4544 11.9065 80.4326 11.7617 80.3877 11.6305C80.3428 11.5018 80.2968 11.3917 80.247 11.3013Z" fill="white"/>
<path d="M88.2081 4.07684C87.5363 3.71172 86.7796 3.52979 85.9368 3.52979C85.1134 3.52979 84.3664 3.71296 83.6946 4.07684C83.0228 4.44196 82.4893 4.97911 82.0927 5.68955C81.6962 6.39998 81.4973 7.27502 81.4973 8.31468C81.4973 9.35557 81.6913 10.2306 82.0782 10.9398C82.465 11.6502 82.9949 12.1874 83.6655 12.5525C84.3361 12.9176 85.094 13.0996 85.9368 13.0996C86.7893 13.0996 87.5509 12.9164 88.2227 12.5525C88.8933 12.1874 89.4232 11.6502 89.81 10.9398C90.1969 10.2294 90.3909 9.35433 90.3909 8.31468C90.3909 7.27502 90.1944 6.39998 89.8028 5.68955C89.4111 4.98035 88.8787 4.44196 88.2081 4.07684ZM87.8043 10.7319C87.3435 11.2826 86.7263 11.5574 85.9526 11.5574C85.1777 11.5574 84.5605 11.2826 84.1009 10.7319C83.6401 10.1823 83.4097 9.37661 83.4097 8.31591C83.4097 7.26512 83.6425 6.46557 84.1082 5.9148C84.5738 5.36527 85.1838 5.08927 85.938 5.08927C86.7117 5.08927 87.3326 5.36403 87.7982 5.9148C88.2639 6.46557 88.4967 7.26512 88.4967 8.31591C88.4943 9.37661 88.2639 10.1811 87.8043 10.7319Z" fill="white"/>
<path d="M98.2489 10.6936C98.0088 10.378 97.759 10.0537 97.4995 9.71829C97.4 9.59081 97.3043 9.46333 97.2072 9.33708C97.2485 9.31976 97.2909 9.30243 97.3309 9.28386C97.8693 9.0289 98.2889 8.67121 98.5872 8.21079C98.8855 7.75037 99.0359 7.22064 99.0359 6.62037C99.0359 5.66982 98.7146 4.92226 98.0731 4.37768C97.4316 3.8331 96.4627 3.55957 95.17 3.55957C94.7286 3.55957 94.2957 3.58432 93.8688 3.63507C93.4432 3.68581 93.0721 3.76008 92.7592 3.86033C92.5919 3.91974 92.4573 4.00019 92.3554 4.10044C92.2523 4.20069 92.2014 4.34055 92.2014 4.52001V9.00662V9.66631V12.0823C92.2014 12.4028 92.2802 12.6293 92.4367 12.7655C92.5931 12.9004 92.8478 12.9685 93.2006 12.9685C93.3777 12.9685 93.5462 12.9561 93.7075 12.9313C93.8688 12.9066 93.9889 12.8793 94.0677 12.8484V9.66755H95.4052C95.4283 9.66755 95.4501 9.66631 95.4731 9.66631L97.1842 12.2481C97.3309 12.4783 97.4861 12.6603 97.6474 12.7952C97.8087 12.9301 98.0367 12.9982 98.3314 12.9982C98.5569 12.9982 98.7655 12.9276 98.9559 12.7878C99.1475 12.6479 99.2772 12.4523 99.3451 12.2023C99.2372 12.0328 99.0881 11.8174 98.8965 11.5575C98.7036 11.2963 98.489 11.0092 98.2489 10.6936ZM94.0519 5.19455C94.2084 5.16485 94.3805 5.14257 94.5661 5.12772C94.7516 5.11287 94.9432 5.10544 95.1397 5.10544C95.8066 5.10544 96.3111 5.2354 96.6543 5.49531C96.9975 5.75522 97.1684 6.13519 97.1684 6.63522C97.1684 7.14514 96.9962 7.53006 96.6543 7.78998C96.3111 8.04989 95.8503 8.17985 95.2731 8.17985H94.0531L94.0519 5.19455Z" fill="white"/>
</g>
<defs>
<clipPath id="clip0_85_920">
<rect width="100" height="16.6667" fill="white"/>
</clipPath>
</defs>
</svg>
